# xmcd
#
# Track frame offsets: 
#        150
#        13934
#        27731
#        31676
#        43773
#        51923
#        70750
#        79614
#        82064
#        101225
#        106203
#        125608
#        128019
#
# Disc length: 1866 seconds
#
# Revision: 1
# Processed by: cddbd v1.5.2PL0 Copyright (c) Steve Scherf et al.
# Submitted via: ExactAudioCopy v0.95b4
#
DISCID=ae07480d
DTITLE=Ieva and Igo - Klusums starp mums
DYEAR=1991
DGENRE=Blues
TTITLE0=Èuksti uzmodinâja pilsçtu
TTITLE1=Manâ istabâ
TTITLE2=XXX
TTITLE3=Vakars pazûd debesîs
TTITLE4=Pagaidi mazliet
TTITLE5=Blûzs
TTITLE6=Nevaru sadzirdçt
TTITLE7=XXX
TTITLE8=Çnas zîmç mûsu stâvus
TTITLE9=XXX
TTITLE10=Ar tevi
TTITLE11=XXX
TTITLE12=Par klusumu
EXTD=YEAR: 1991
EXTT0=
EXTT1=
EXTT2=
EXTT3=
EXTT4=
EXTT5=
EXTT6=
EXTT7=
EXTT8=
EXTT9=
EXTT10=
EXTT11=
EXTT12=
PLAYORDER=
